solid 
facet normal 0 -2.384186e-07 1
 outer loop
  vertex -0.09375 0.37499997 0.5625
  vertex 0.09375 0.37499997 0.5625
  vertex 0.09375 0.62499994 0.56250006
 endloop
endfacet
facet normal 0 -2.384186e-07 1
 outer loop
  vertex -0.09375 0.37499997 0.5625
  vertex 0.09375 0.62499994 0.56250006
  vertex -0.09375 0.62499994 0.56250006
 endloop
endfacet
facet normal -1 0 -0
 outer loop
  vertex -0.09375 0.37500003 -0.5625
  vertex -0.09375 0.37499997 0.5625
  vertex -0.09375 0.62499994 0.56250006
 endloop
endfacet
facet normal -1 -0 0
 outer loop
  vertex -0.09375 0.37500003 -0.5625
  vertex -0.09375 0.62499994 0.56250006
  vertex -0.09375 0.62500006 -0.56249994
 endloop
endfacet
facet normal 0 2.3841854e-07 -1
 outer loop
  vertex 0.09375 0.37500003 -0.5625
  vertex -0.09375 0.37500003 -0.5625
  vertex -0.09375 0.62500006 -0.56249994
 endloop
endfacet
facet normal 0 2.3841854e-07 -1
 outer loop
  vertex 0.09375 0.37500003 -0.5625
  vertex -0.09375 0.62500006 -0.56249994
  vertex 0.09375 0.62500006 -0.56249994
 endloop
endfacet
facet normal 1 0 0
 outer loop
  vertex 0.09375 0.37499997 0.5625
  vertex 0.09375 0.37500003 -0.5625
  vertex 0.09375 0.62500006 -0.56249994
 endloop
endfacet
facet normal 1 0 0
 outer loop
  vertex 0.09375 0.37499997 0.5625
  vertex 0.09375 0.62500006 -0.56249994
  vertex 0.09375 0.62499994 0.56250006
 endloop
endfacet
facet normal -0 1 1.05963814e-07
 outer loop
  vertex 0.09375 0.62500006 -0.56249994
  vertex -0.09375 0.62500006 -0.56249994
  vertex -0.09375 0.62499994 0.56250006
 endloop
endfacet
facet normal 0 1 1.05963814e-07
 outer loop
  vertex 0.09375 0.62500006 -0.56249994
  vertex -0.09375 0.62499994 0.56250006
  vertex 0.09375 0.62499994 0.56250006
 endloop
endfacet
facet normal 0 -1 -5.2981907e-08
 outer loop
  vertex 0.09375 0.37499997 0.5625
  vertex -0.09375 0.37499997 0.5625
  vertex -0.09375 0.37500003 -0.5625
 endloop
endfacet
facet normal -0 -1 -5.2981907e-08
 outer loop
  vertex 0.09375 0.37499997 0.5625
  vertex -0.09375 0.37500003 -0.5625
  vertex 0.09375 0.37500003 -0.5625
 endloop
endfacet
facet normal 0.70710677 -8.429369e-08 0.70710677
 outer loop
  vertex 0.3314563 0.37499997 0.46403885
  vertex 0.46403882 0.37499997 0.33145633
  vertex 0.46403882 0.625 0.33145636
 endloop
endfacet
facet normal 0.70710677 -7.947287e-08 0.70710677
 outer loop
  vertex 0.3314563 0.37499997 0.46403885
  vertex 0.46403882 0.625 0.33145636
  vertex 0.3314563 0.62499994 0.46403888
 endloop
endfacet
facet normal -0.70710677 -8.429371e-08 0.70710677
 outer loop
  vertex -0.46403882 0.37500003 -0.33145627
  vertex 0.3314563 0.37499997 0.46403885
  vertex 0.3314563 0.62499994 0.46403888
 endloop
endfacet
facet normal -0.70710677 0 0.70710677
 outer loop
  vertex -0.46403882 0.37500003 -0.33145627
  vertex 0.3314563 0.62499994 0.46403888
  vertex -0.46403882 0.625 -0.33145624
 endloop
endfacet
facet normal -0.70710677 8.429371e-08 -0.70710677
 outer loop
  vertex -0.3314563 0.37500003 -0.4640388
  vertex -0.46403882 0.37500003 -0.33145627
  vertex -0.46403882 0.625 -0.33145624
 endloop
endfacet
facet normal -0.70710677 7.9472855e-08 -0.70710677
 outer loop
  vertex -0.3314563 0.37500003 -0.4640388
  vertex -0.46403882 0.625 -0.33145624
  vertex -0.3314563 0.62500006 -0.46403876
 endloop
endfacet
facet normal 0.70710677 8.429368e-08 -0.70710677
 outer loop
  vertex 0.46403882 0.37499997 0.33145633
  vertex -0.3314563 0.37500003 -0.4640388
  vertex -0.3314563 0.62500006 -0.46403876
 endloop
endfacet
facet normal 0.70710677 2.1192758e-07 -0.70710677
 outer loop
  vertex 0.46403882 0.37499997 0.33145633
  vertex -0.3314563 0.62500006 -0.46403876
  vertex 0.46403882 0.625 0.33145636
 endloop
endfacet
facet normal -1.8731933e-07 1 2.6224708e-07
 outer loop
  vertex -0.3314563 0.62500006 -0.46403876
  vertex -0.46403882 0.625 -0.33145624
  vertex 0.3314563 0.62499994 0.46403888
 endloop
endfacet
facet normal -1.8731934e-07 1 2.6224708e-07
 outer loop
  vertex -0.3314563 0.62500006 -0.46403876
  vertex 0.3314563 0.62499994 0.46403888
  vertex 0.46403882 0.625 0.33145636
 endloop
endfacet
facet normal -3.7463863e-08 -1 -3.7463863e-08
 outer loop
  vertex 0.46403882 0.37499997 0.33145633
  vertex 0.3314563 0.37499997 0.46403885
  vertex -0.46403882 0.37500003 -0.33145627
 endloop
endfacet
facet normal -3.7463867e-08 -1 -3.7463867e-08
 outer loop
  vertex 0.46403882 0.37499997 0.33145633
  vertex -0.46403882 0.37500003 -0.33145627
  vertex -0.3314563 0.37500003 -0.4640388
 endloop
endfacet
facet normal 0 -5.9604645e-08 1
 outer loop
  vertex -0.5625 0.375 0.09375003
  vertex 0.5625 0.375 0.09375003
  vertex 0.5625 0.625 0.093750045
 endloop
endfacet
facet normal 0 -5.9604645e-08 1
 outer loop
  vertex -0.5625 0.375 0.09375003
  vertex 0.5625 0.625 0.093750045
  vertex -0.5625 0.625 0.093750045
 endloop
endfacet
facet normal -1 0 -0
 outer loop
  vertex -0.5625 0.375 -0.09374997
  vertex -0.5625 0.375 0.09375003
  vertex -0.5625 0.625 0.093750045
 endloop
endfacet
facet normal -1 -0 0
 outer loop
  vertex -0.5625 0.375 -0.09374997
  vertex -0.5625 0.625 0.093750045
  vertex -0.5625 0.625 -0.093749955
 endloop
endfacet
facet normal 0 5.9604645e-08 -1
 outer loop
  vertex 0.5625 0.375 -0.09374997
  vertex -0.5625 0.375 -0.09374997
  vertex -0.5625 0.625 -0.093749955
 endloop
endfacet
facet normal 0 5.9604645e-08 -1
 outer loop
  vertex 0.5625 0.375 -0.09374997
  vertex -0.5625 0.625 -0.093749955
  vertex 0.5625 0.625 -0.093749955
 endloop
endfacet
facet normal 1 0 -0
 outer loop
  vertex 0.5625 0.375 0.09375003
  vertex 0.5625 0.375 -0.09374997
  vertex 0.5625 0.625 -0.093749955
 endloop
endfacet
facet normal 1 0 0
 outer loop
  vertex 0.5625 0.375 0.09375003
  vertex 0.5625 0.625 -0.093749955
  vertex 0.5625 0.625 0.093750045
 endloop
endfacet
facet normal -0 1 0
 outer loop
  vertex 0.5625 0.625 -0.093749955
  vertex -0.5625 0.625 -0.093749955
  vertex -0.5625 0.625 0.093750045
 endloop
endfacet
facet normal 0 1 0
 outer loop
  vertex 0.5625 0.625 -0.093749955
  vertex -0.5625 0.625 0.093750045
  vertex 0.5625 0.625 0.093750045
 endloop
endfacet
facet normal 0 -1 0
 outer loop
  vertex 0.5625 0.375 0.09375003
  vertex -0.5625 0.375 0.09375003
  vertex -0.5625 0.375 -0.09374997
 endloop
endfacet
facet normal 0 -1 0
 outer loop
  vertex 0.5625 0.375 0.09375003
  vertex -0.5625 0.375 -0.09374997
  vertex 0.5625 0.375 -0.09374997
 endloop
endfacet
facet normal 0.70710677 -8.429371e-08 0.70710677
 outer loop
  vertex -0.3314563 0.37499997 0.46403885
  vertex 0.46403882 0.37500003 -0.33145627
  vertex 0.46403882 0.625 -0.33145624
 endloop
endfacet
facet normal 0.70710677 -2.1192763e-07 0.70710677
 outer loop
  vertex -0.3314563 0.37499997 0.46403885
  vertex 0.46403882 0.625 -0.33145624
  vertex -0.3314563 0.62499994 0.46403888
 endloop
endfacet
facet normal -0.70710677 -8.429371e-08 0.70710677
 outer loop
  vertex -0.46403882 0.37499997 0.33145633
  vertex -0.3314563 0.37499997 0.46403885
  vertex -0.3314563 0.62499994 0.46403888
 endloop
endfacet
facet normal -0.70710677 -7.9472855e-08 0.70710677
 outer loop
  vertex -0.46403882 0.37499997 0.33145633
  vertex -0.3314563 0.62499994 0.46403888
  vertex -0.46403882 0.625 0.33145636
 endloop
endfacet
facet normal -0.70710677 8.429368e-08 -0.70710677
 outer loop
  vertex 0.3314563 0.37500003 -0.4640388
  vertex -0.46403882 0.37499997 0.33145633
  vertex -0.46403882 0.625 0.33145636
 endloop
endfacet
facet normal -0.70710677 0 -0.70710677
 outer loop
  vertex 0.3314563 0.37500003 -0.4640388
  vertex -0.46403882 0.625 0.33145636
  vertex 0.3314563 0.62500006 -0.46403876
 endloop
endfacet
facet normal 0.70710677 8.429369e-08 -0.70710677
 outer loop
  vertex 0.46403882 0.37500003 -0.33145627
  vertex 0.3314563 0.37500003 -0.4640388
  vertex 0.3314563 0.62500006 -0.46403876
 endloop
endfacet
facet normal 0.70710677 7.947287e-08 -0.70710677
 outer loop
  vertex 0.46403882 0.37500003 -0.33145627
  vertex 0.3314563 0.62500006 -0.46403876
  vertex 0.46403882 0.625 -0.33145624
 endloop
endfacet
facet normal 1.8731933e-07 1 2.6224708e-07
 outer loop
  vertex 0.3314563 0.62500006 -0.46403876
  vertex -0.46403882 0.625 0.33145636
  vertex -0.3314563 0.62499994 0.46403888
 endloop
endfacet
facet normal 1.8731934e-07 1 2.6224708e-07
 outer loop
  vertex 0.3314563 0.62500006 -0.46403876
  vertex -0.3314563 0.62499994 0.46403888
  vertex 0.46403882 0.625 -0.33145624
 endloop
endfacet
facet normal 3.7463863e-08 -1 -3.7463863e-08
 outer loop
  vertex 0.46403882 0.37500003 -0.33145627
  vertex -0.3314563 0.37499997 0.46403885
  vertex -0.46403882 0.37499997 0.33145633
 endloop
endfacet
facet normal 3.7463874e-08 -1 -3.7463856e-08
 outer loop
  vertex 0.46403882 0.37500003 -0.33145627
  vertex -0.46403882 0.37499997 0.33145633
  vertex 0.3314563 0.37500003 -0.4640388
 endloop
endfacet
facet normal 0 0 1
 outer loop
  vertex -0.375 0.37499997 0.37500003
  vertex 0.375 0.37499997 0.37500003
  vertex 0.375 0.5625 0.37500003
 endloop
endfacet
facet normal -0 0 1
 outer loop
  vertex -0.375 0.37499997 0.37500003
  vertex 0.375 0.5625 0.37500003
  vertex -0.375 0.5625 0.37500003
 endloop
endfacet
facet normal -1 -0 -0
 outer loop
  vertex -0.375 0.37500003 -0.37499997
  vertex -0.375 0.37499997 0.37500003
  vertex -0.375 0.5625 0.37500003
 endloop
endfacet
facet normal -1 -0 0
 outer loop
  vertex -0.375 0.37500003 -0.37499997
  vertex -0.375 0.5625 0.37500003
  vertex -0.375 0.5625 -0.37499997
 endloop
endfacet
facet normal 0 0 -1
 outer loop
  vertex 0.375 0.37500003 -0.37499997
  vertex -0.375 0.37500003 -0.37499997
  vertex -0.375 0.5625 -0.37499997
 endloop
endfacet
facet normal -0 -0 -1
 outer loop
  vertex 0.375 0.37500003 -0.37499997
  vertex -0.375 0.5625 -0.37499997
  vertex 0.375 0.5625 -0.37499997
 endloop
endfacet
facet normal 1 0 0
 outer loop
  vertex 0.375 0.37499997 0.37500003
  vertex 0.375 0.37500003 -0.37499997
  vertex 0.375 0.5625 -0.37499997
 endloop
endfacet
facet normal 1 0 0
 outer loop
  vertex 0.375 0.37499997 0.37500003
  vertex 0.375 0.5625 -0.37499997
  vertex 0.375 0.5625 0.37500003
 endloop
endfacet
facet normal -0 1 0
 outer loop
  vertex 0.375 0.5625 -0.37499997
  vertex -0.375 0.5625 -0.37499997
  vertex -0.375 0.5625 0.37500003
 endloop
endfacet
facet normal 0 1 0
 outer loop
  vertex 0.375 0.5625 -0.37499997
  vertex -0.375 0.5625 0.37500003
  vertex 0.375 0.5625 0.37500003
 endloop
endfacet
facet normal 0 -1 -7.947286e-08
 outer loop
  vertex 0.375 0.37499997 0.37500003
  vertex -0.375 0.37499997 0.37500003
  vertex -0.375 0.37500003 -0.37499997
 endloop
endfacet
facet normal -0 -1 -7.947286e-08
 outer loop
  vertex 0.375 0.37499997 0.37500003
  vertex -0.375 0.37500003 -0.37499997
  vertex 0.375 0.37500003 -0.37499997
 endloop
endfacet
endsolid 
